<?xml version="1.0" encoding="UTF-8" standalone="no"?>
<!DOCTYPE svg PUBLIC "-//W3C//DTD SVG 20010904//EN"
"http://www.w3.org/TR/2001/REC-SVG-20010904/DTD/svg10.dtd">
<!-- Created with Sodipodi ("http://www.sodipodi.com/") -->
<svg
   xmlns="http://www.w3.org/2000/svg"
   xmlns:odm="http://product.corel.com/CGS/11/cddns/"
   xml:space="preserve"
   width="280pt"
   height="188pt"
   style="shape-rendering:geometricPrecision; text-rendering:geometricPrecision; image-rendering:optimizeQuality; fill-rule:evenodd"
   viewBox="0 0 8268 11692"
   xmlns:sodipodi="http://sodipodi.sourceforge.net/DTD/sodipodi-0.dtd"
   xmlns:xlink="http://www.w3.org/1999/xlink"
   id="svg668"
   sodipodi:version="0.34"
   sodipodi:docname="D:\Dokumenty\Wikipedie\images\svg\Astro\aquarius.svg"><sodipodi:namedview
   id="base" /><defs
   id="defs669"><style
   type="text/css"
   id="style670"><![CDATA[
    .fil0 {fill:#000000}
   ]]></style></defs><g
   id="Layer 1"
   transform="matrix(6.99342,0,0,6.984468,-23594.91,-32470.79)"><path
   class="fil0"
   d="M2720 6184l753 -497 165 385 583 -385 163 385 584 -385 241 567 -156 69 -161 -385 -586 385 -163 -385 -581 385 -164 -385 -586 385 -92 -139zm1 -1037l753 -498 165 385 584 -385 163 385 583 -385 241 567 -156 69 -161 -385 -587 385 -163 -385 -581 385 -162 -385 -586 385 -93 -138z"
   id="path672" /></g></svg>
