<?xml version="1.0" encoding="UTF-8" standalone="no"?>
<!DOCTYPE svg PUBLIC "-//W3C//DTD SVG 20010904//EN"
"http://www.w3.org/TR/2001/REC-SVG-20010904/DTD/svg10.dtd">
<!-- Created with Sodipodi ("http://www.sodipodi.com/") -->
<svg
   xmlns="http://www.w3.org/2000/svg"
   xmlns:odm="http://product.corel.com/CGS/11/cddns/"
   xml:space="preserve"
   width="198pt"
   height="188pt"
   style="shape-rendering:geometricPrecision; text-rendering:geometricPrecision; image-rendering:optimizeQuality; fill-rule:evenodd"
   viewBox="0 0 8268 11692"
   xmlns:sodipodi="http://sodipodi.sourceforge.net/DTD/sodipodi-0.dtd"
   xmlns:xlink="http://www.w3.org/1999/xlink"
   id="svg602"
   sodipodi:version="0.34"
   sodipodi:docname="D:\Dokumenty\Wikipedie\images\svg\Astro\aries.svg"><sodipodi:namedview
   id="base" /><defs
   id="defs603"><style
   type="text/css"
   id="style604"><![CDATA[
    .fil0 {fill:#000000}
   ]]></style></defs><g
   id="Layer 1"
   transform="matrix(4.487579,0,0,4.505588,-8862.027,-12858.95)"><path
   class="fil0"
   d="M2796 5449l0 -134c0,-257 -26,-543 -77,-857 -52,-315 -115,-572 -189,-771 -162,-432 -336,-648 -523,-648 -83,0 -151,36 -204,109 -52,73 -78,167 -78,284 0,154 49,313 149,477l-203 0c-98,-177 -147,-343 -147,-497 0,-160 46,-292 138,-398 92,-106 208,-160 347,-160 225,0 415,151 573,454 157,301 256,706 297,1215l34 0c34,-498 132,-901 292,-1208 160,-307 354,-461 579,-461 139,0 254,53 346,158 92,104 138,236 138,396 0,155 -49,322 -146,501l-204 0c99,-177 149,-339 149,-488 0,-119 -26,-215 -77,-289 -52,-73 -120,-110 -205,-110 -181,0 -350,202 -506,604 -80,205 -146,471 -201,798 -54,326 -81,626 -81,899l0 126 -201 0z"
   id="path606" /></g></svg>
