<?xml version="1.0" encoding="UTF-8" standalone="no"?>
<!DOCTYPE svg PUBLIC "-//W3C//DTD SVG 20010904//EN"
"http://www.w3.org/TR/2001/REC-SVG-20010904/DTD/svg10.dtd">
<!-- Created with Sodipodi ("http://www.sodipodi.com/") -->
<svg
   xmlns="http://www.w3.org/2000/svg"
   xmlns:odm="http://product.corel.com/CGS/11/cddns/"
   xml:space="preserve"
   width="147pt"
   height="188pt"
   style="shape-rendering:geometricPrecision; text-rendering:geometricPrecision; image-rendering:optimizeQuality; fill-rule:evenodd"
   viewBox="0 0 8268 11692"
   xmlns:sodipodi="http://sodipodi.sourceforge.net/DTD/sodipodi-0.dtd"
   xmlns:xlink="http://www.w3.org/1999/xlink"
   id="svg632"
   sodipodi:version="0.34"
   sodipodi:docname="D:\Dokumenty\Wikipedie\images\svg\Astro\leo.svg"><sodipodi:namedview
   id="base" /><defs
   id="defs633"><style
   type="text/css"
   id="style634"><![CDATA[
    .fil0 {fill:#000000}
   ]]></style></defs><g
   id="Layer 1"
   transform="matrix(4.260087,0,0,4.260933,-12024.51,-18381.66)"><path
   class="fil0"
   d="M4866 6842c-157,144 -307,216 -451,216 -124,0 -229,-41 -314,-124 -84,-83 -126,-185 -126,-306 0,-162 85,-423 255,-784l130 -277c100,-214 150,-388 150,-521 0,-170 -49,-306 -148,-409 -99,-104 -230,-155 -393,-155 -153,0 -276,46 -371,137 -94,93 -141,213 -141,362 0,138 44,299 132,483l53 110c88,182 132,315 132,402 0,137 -53,258 -157,360 -104,102 -228,153 -370,153 -146,0 -271,-51 -373,-154 -103,-103 -154,-228 -154,-376 0,-142 50,-265 152,-368 101,-103 222,-155 362,-155 51,0 107,9 168,28 -97,-187 -146,-352 -146,-496 0,-187 67,-343 202,-467 136,-125 306,-187 510,-187 224,0 404,66 540,197 135,132 203,307 203,525 0,108 -11,202 -34,280 -22,79 -76,209 -160,390l-93 203c-166,360 -250,592 -250,698 0,78 23,142 70,192 46,51 106,76 178,76 95,0 204,-54 326,-162l118 129zm-1996 -881c0,106 36,196 107,269 71,72 158,109 262,109 102,0 188,-37 260,-110 72,-73 108,-162 108,-266 0,-106 -36,-195 -107,-268 -72,-72 -159,-109 -263,-109 -102,0 -188,37 -260,110 -71,73 -107,161 -107,265z"
   id="path636" /></g></svg>
