<?xml version="1.0" encoding="UTF-8" standalone="no"?>
<!DOCTYPE svg PUBLIC "-//W3C//DTD SVG 20010904//EN"
"http://www.w3.org/TR/2001/REC-SVG-20010904/DTD/svg10.dtd">
<!-- Created with Sodipodi ("http://www.sodipodi.com/") -->
<svg
   xmlns="http://www.w3.org/2000/svg"
   xmlns:odm="http://product.corel.com/CGS/11/cddns/"
   xml:space="preserve"
   width="151.5pt"
   height="188pt"
   style="shape-rendering:geometricPrecision; text-rendering:geometricPrecision; image-rendering:optimizeQuality; fill-rule:evenodd"
   viewBox="0 0 8268 11692"
   xmlns:sodipodi="http://sodipodi.sourceforge.net/DTD/sodipodi-0.dtd"
   xmlns:xlink="http://www.w3.org/1999/xlink"
   id="svg674"
   sodipodi:version="0.34"
   sodipodi:docname="D:\Dokumenty\Wikipedie\images\svg\Astro\pisces.svg"><sodipodi:namedview
   id="base" /><defs
   id="defs675"><style
   type="text/css"
   id="style676"><![CDATA[
    .fil0 {fill:#000000}
   ]]></style></defs><g
   id="Layer 1"
   transform="matrix(5.548888,0,0,5.549122,-15669.98,-24593.71)"><path
   class="fil0"
   d="M3362 5518c0,165 -39,340 -115,524 -77,184 -179,350 -308,497l-219 0c295,-311 442,-651 442,-1021l-427 0 0 -150 427 0c-18,-322 -165,-634 -442,-936l207 0c254,271 399,583 435,936l414 0c37,-353 182,-665 435,-936l207 0c-277,302 -424,614 -442,936l427 0 0 150 -427 0c0,370 147,710 442,1021l-218 0c-130,-147 -232,-313 -309,-497 -76,-184 -115,-359 -115,-524l-414 0z"
   id="path678" /></g></svg>
