<?xml version="1.0" encoding="UTF-8" standalone="no"?>
<!DOCTYPE svg PUBLIC "-//W3C//DTD SVG 20010904//EN"
"http://www.w3.org/TR/2001/REC-SVG-20010904/DTD/svg10.dtd">
<!-- Created with Sodipodi ("http://www.sodipodi.com/") -->
<svg
   xmlns="http://www.w3.org/2000/svg"
   xmlns:odm="http://product.corel.com/CGS/11/cddns/"
   xml:space="preserve"
   width="171pt"
   height="188pt"
   style="shape-rendering:geometricPrecision; text-rendering:geometricPrecision; image-rendering:optimizeQuality; fill-rule:evenodd"
   viewBox="0 0 8268 11692"
   xmlns:sodipodi="http://sodipodi.sourceforge.net/DTD/sodipodi-0.dtd"
   xmlns:xlink="http://www.w3.org/1999/xlink"
   id="svg650"
   sodipodi:version="0.34"
   sodipodi:docname="D:\Dokumenty\Wikipedie\images\svg\Astro\scorpio.svg"><sodipodi:namedview
   id="base" /><defs
   id="defs651"><style
   type="text/css"
   id="style652"><![CDATA[
    .fil0 {fill:#000000}
   ]]></style></defs><g
   id="Layer 1"
   transform="matrix(4.472138,0,0,4.481411,-13347.59,-19910.91)"><path
   class="fil0"
   d="M2889 6489l0 -1432c0,-238 -56,-431 -169,-575l216 0c76,116 127,247 154,395 64,-158 143,-289 236,-395l194 -39c91,106 148,258 173,455 49,-141 130,-280 242,-416l198 -39c108,146 162,319 162,519l0 1250c0,131 5,220 13,266 10,47 30,87 62,122 57,60 153,90 287,90l123 0 0 -201 318 287 -318 276 0 -195 -184 0c-176,0 -303,-46 -382,-138 -80,-93 -120,-240 -120,-443l0 -1209c0,-204 -29,-350 -88,-439 -150,173 -255,389 -313,649l0 1212 -201 0 0 -1351c0,-243 -29,-413 -88,-510 -144,162 -248,364 -314,604l0 1257 -201 0z"
   id="path654" /></g></svg>
