<?xml version="1.0" encoding="UTF-8" standalone="no"?>
<!DOCTYPE svg PUBLIC "-//W3C//DTD SVG 20010904//EN"
"http://www.w3.org/TR/2001/REC-SVG-20010904/DTD/svg10.dtd">
<!-- Created with Sodipodi ("http://www.sodipodi.com/") -->
<svg
   xmlns="http://www.w3.org/2000/svg"
   xmlns:odm="http://product.corel.com/CGS/11/cddns/"
   xml:space="preserve"
   width="180pt"
   height="188pt"
   style="shape-rendering:geometricPrecision; text-rendering:geometricPrecision; image-rendering:optimizeQuality; fill-rule:evenodd"
   viewBox="0 0 8268 11692"
   xmlns:sodipodi="http://sodipodi.sourceforge.net/DTD/sodipodi-0.dtd"
   xmlns:xlink="http://www.w3.org/1999/xlink"
   id="svg614"
   sodipodi:version="0.34"
   sodipodi:docname="D:\Dokumenty\Wikipedie\images\svg\Astro\taurus.svg"><sodipodi:namedview
   id="base" /><defs
   id="defs615"><style
   type="text/css"
   id="style616"><![CDATA[
    .fil0 {fill:#000000}
   ]]></style></defs><g
   id="Layer 1"
   transform="matrix(4.552447,0,0,4.540583,-8401.163,-13199.48)"><path
   class="fil0"
   d="M2373 3861c-89,-35 -160,-80 -216,-134 -55,-54 -116,-141 -183,-262l-80 -144c-98,-176 -210,-264 -334,-264l-36 0 0 -150 99 0c176,0 336,124 479,371l109 192c74,126 150,214 230,264 80,51 184,76 313,76 129,0 233,-25 313,-76 80,-50 156,-138 229,-264l111 -192c142,-247 302,-371 477,-371l99 0 0 150 -35 0c-125,0 -237,88 -335,264l-80 144c-67,121 -128,208 -183,262 -56,54 -128,99 -216,134 154,85 272,195 356,328 84,133 125,280 125,438 0,230 -85,430 -256,600 -172,170 -373,255 -605,255 -232,0 -433,-85 -605,-255 -172,-170 -258,-370 -258,-600 0,-158 42,-305 126,-438 84,-133 202,-243 356,-328zm381 1420c182,0 337,-63 467,-191 129,-126 194,-279 194,-458 0,-182 -65,-337 -193,-464 -128,-128 -284,-191 -468,-191 -183,0 -339,63 -469,191 -128,127 -193,282 -193,464 0,179 65,332 194,458 129,128 285,191 468,191z"
   id="path618" /></g></svg>
