<?xml version="1.0" encoding="UTF-8" standalone="no"?>
<!-- Created with Inkscape (http://www.inkscape.org/) -->
<svg
   xmlns:svg="http://www.w3.org/2000/svg"
   xmlns="http://www.w3.org/2000/svg"
   version="1.0"
   width="50"
   height="50"
   id="svg2">
  <defs
     id="defs4" />
  <g
     id="layer1">
    <path
       d="M 13.57935,4.61936e-06 C 14.692738,1.477643 13.241574,3.5957683 12.939826,5.0525197 L 2.8095207,37.085678 C 2.1227469,38.521657 1.1862409,39.520597 -2.7511884e-15,40.0825 L 8.803165,40.0825 C 7.3671803,39.093966 6.9613611,37.626774 7.585706,35.680918 L 11.893638,23.412677 L 24.34918,23.412677 L 29.312666,36.711076 C 29.645617,38.178272 29.489533,39.302079 28.844413,40.0825 L 40.082496,40.0825 C 38.500801,38.875448 37.408211,37.657991 36.804722,36.430124 L 22.382515,4.61936e-06 L 13.57935,4.61936e-06 M 37.179324,0.37460738 C 32.475946,1.1446631 30.571717,3.7044461 31.466632,8.0539641 L 31.841235,8.6158682 L 32.590441,9.7396765 C 32.985822,9.9894418 33.29799,10.239177 33.526947,10.488882 C 34.047195,10.70743 34.453014,10.957165 34.744406,11.238088 C 35.347898,11.46704 35.847368,11.747992 36.242817,12.080944 L 36.430119,12.174594 L 36.992023,12.549197 C 37.98052,12.996667 38.760942,13.55857 39.33329,14.23491 C 39.988805,15.379554 40.207323,16.534578 39.988845,17.699985 C 39.125139,19.188012 37.876464,19.843566 36.242817,19.66665 C 33.901516,19.135983 32.153372,17.637574 30.998379,15.171417 L 30.998379,19.947602 C 32.715275,20.936156 34.46342,21.466843 36.242817,21.539664 C 41.008556,21.529277 43.599556,19.375313 44.015825,15.077766 C 43.859697,13.818711 43.453877,12.72612 42.798366,11.799992 C 42.413315,11.519068 42.132363,11.238116 41.95551,10.957135 L 41.674558,10.769834 L 41.393606,10.676183 L 39.895194,9.7396765 C 39.395685,9.5211888 38.989865,9.2714539 38.677735,8.990471 C 37.272938,8.386976 36.149131,7.5753375 35.306311,6.555553 C 34.515448,3.652418 35.608038,2.1540084 38.584085,2.0603198 C 40.644359,2.5806389 42.111552,3.735663 42.985667,5.5253954 L 42.985667,5.1507926 L 42.985667,4.7761899 L 42.985667,4.4015871 L 42.985667,2.8095254 L 42.985667,2.5285733 L 42.985667,1.404765 L 42.798366,1.3111143 C 42.538183,1.2279081 42.319664,1.1342575 42.142811,1.0301622 L 41.861859,1.0301622 C 41.508026,0.88452257 41.133424,0.79087197 40.738051,0.74921015 C 40.23854,0.58275953 39.770287,0.48910893 39.33329,0.46825808 L 38.958688,0.46825808 C 38.344717,0.35383585 37.81403,0.32261898 37.366626,0.37460738 L 37.272975,0.37460738 L 37.366626,0.37460738 L 37.179324,0.37460738 L 37.272975,0.37460738 L 37.179324,0.37460738 M 54.317401,0.37460738 C 48.948046,1.1134463 45.795142,3.954181 44.858681,8.8968203 C 44.109431,14.214124 45.857576,18.085016 50.10312,20.509506 C 54.410997,22.288887 58.250672,21.726983 61.622155,18.823794 L 61.622155,18.542841 L 61.715806,18.168239 L 61.903107,17.512684 L 61.996758,17.325382 C 62.079941,16.732285 62.204808,16.232815 62.37136,15.826971 C 62.31927,15.712534 62.256836,15.6501 62.184059,15.63967 C 59.083121,19.448152 55.680483,20.322224 51.976134,18.261889 C 49.031291,15.764562 48.032351,12.205839 48.979312,7.5857106 C 49.6036,4.4848678 51.289311,2.6742895 54.036449,2.1539705 C 57.033214,1.945896 59.436913,3.4443056 61.247552,6.6492037 L 61.247552,1.8730184 L 60.9666,1.7793678 L 60.779299,1.6857171 C 60.269362,1.5192655 59.832326,1.3319643 59.468189,1.1238129 C 58.80217,1.00939 58.271483,0.88452257 57.876127,0.74921015 C 57.376599,0.63478764 56.97078,0.57235391 56.658668,0.56190877 C 55.690889,0.39545834 54.910467,0.3330246 54.317401,0.37460738 M 17.699981,6.4619023 C 17.866453,6.6076146 19.677031,11.227711 23.131721,20.322205 L 12.830145,20.322205 L 17.699981,6.4619023"
       transform="scale(0.80165,1.2474272)"
       style="fill:#000000;fill-opacity:1;stroke:none;stroke-width:1px;stroke-linecap:butt;stroke-linejoin:miter;stroke-opacity:1"
       id="text2164" />
  </g>
</svg>
