<?xml version="1.0" encoding="UTF-8" standalone="no"?>
<!-- Created with Inkscape (http://www.inkscape.org/) -->
<svg
   xmlns:svg="http://www.w3.org/2000/svg"
   xmlns="http://www.w3.org/2000/svg"
   version="1.0"
   width="50"
   height="50"
   id="svg2">
  <defs
     id="defs4" />
  <g
     id="layer1">
    <path
       d="M 1.3676798,-1.5497208e-06 C 2.2469003,1.2048998 2.7679207,2.4423231 2.9307425,3.7122723 L 1.9538283,37.708885 C 1.5847703,39.27195 0.93349483,40.607065 -3.02371e-31,41.714233 L 7.6199305,41.714233 C 6.6864281,40.715611 6.0677164,39.641007 5.7637936,38.490417 L 6.1545593,8.6945345 L 17.812402,41.746797 L 21.39442,41.714233 L 32.726625,8.0106946 L 33.410465,37.806577 C 33.084793,39.347933 32.466082,40.650483 31.554328,41.714233 L 42.788841,41.714233 C 41.898721,40.61792 41.312573,39.445624 41.030395,38.197342 L 39.858098,4.8845693 C 39.879767,2.4640323 40.563607,0.86840744 41.909618,0.097689867 L 31.717147,0.097689867 L 21.39442,30.186646 L 11.03913,-1.5497208e-06 L 1.3676798,-1.5497208e-06 M 51.483377,0.2930727 C 50.864613,0.33653249 50.321884,0.39080544 49.855186,0.45589173 C 49.399244,0.52106053 48.70455,0.72729776 47.771103,1.074604 C 42.039831,4.4395679 40.118568,9.2915701 42.007309,15.630625 C 43.635456,19.277794 46.207994,21.459567 49.724931,22.17595 C 53.426297,22.610153 56.552419,21.730931 59.103307,19.538282 L 59.884838,16.216774 C 57.116858,19.440613 53.925608,20.580345 50.31108,19.635973 C 46.870124,17.899261 45.339627,14.935957 45.719583,10.746054 C 45.469882,6.2522846 47.09807,3.4192363 50.604154,2.246901 C 54.110136,1.8019023 56.812929,3.3323996 58.712541,6.8383976 L 58.61485,1.758444 L 58.321776,1.758444 C 56.063963,0.72729776 53.784498,0.23884117 51.483377,0.2930727"
       transform="scale(0.8349359,1.1976967)"
       style="fill:#000000;fill-opacity:1;stroke:none;stroke-width:1px;stroke-linecap:butt;stroke-linejoin:miter;stroke-opacity:1"
       id="MC" />
  </g>
</svg>
